<?xml version="1.0" encoding="utf-8"?>
<!-- Generator: Adobe Illustrator 23.0.2, SVG Export Plug-In . SVG Version: 6.00 Build 0)  -->
<svg version="1.1" id="Layer_1" xmlns="http://www.w3.org/2000/svg" xmlns:xlink="http://www.w3.org/1999/xlink" x="0px" y="0px"
	 viewBox="0 0 32 32" style="enable-background:new 0 0 32 32;" xml:space="preserve">
<style type="text/css">
	.st0{clip-path:url(#SVGID_2_);}
	.st1{clip-path:url(#SVGID_4_);fill:#FFFFFF;}
	.st2{clip-path:url(#SVGID_4_);}
	.st3{fill:#3A559E;}
	.st4{clip-path:url(#SVGID_8_);}
	.st5{clip-path:url(#SVGID_10_);fill:#FFFFFF;}
	.st6{clip-path:url(#SVGID_10_);}
	.st7{fill:#FABA00;}
	.st8{fill:#518DF7;}
	.st9{fill:#28B346;}
	.st10{fill:#F04336;}
	.st11{clip-path:url(#SVGID_12_);}
	.st12{clip-path:url(#SVGID_14_);}
	.st13{fill:#0F6BA6;}
	.st14{fill:#FFFFFF;}
	.st15{fill:#212123;}
</style>
<g>
	<defs>
		<rect id="SVGID_7_" x="0" width="32" height="32"/>
	</defs>
	<clipPath id="SVGID_2_">
		<use xlink:href="#SVGID_7_"  style="overflow:visible;"/>
	</clipPath>
	<g class="st0">
		<defs>
			<circle id="SVGID_9_" cx="16" cy="16" r="14"/>
		</defs>
		<clipPath id="SVGID_4_">
			<use xlink:href="#SVGID_9_"  style="overflow:visible;"/>
		</clipPath>
		<polyline class="st1" points="18.07,30.29 30.69,30.29 30.69,1.71 1.31,1.71 1.31,30.29 14.09,30.29 		"/>
		<g class="st2">
			<path class="st7" d="M11.14,17.82l-0.61,2.27L8.3,20.14C7.64,18.91,7.26,17.5,7.26,16c0-1.45,0.35-2.81,0.98-4.02h0l1.98,0.36
				l0.87,1.97c-0.18,0.53-0.28,1.1-0.28,1.69C10.81,16.64,10.92,17.26,11.14,17.82z"/>
			<path class="st8" d="M24.58,14.37c0.1,0.53,0.15,1.07,0.15,1.63c0,0.63-0.07,1.24-0.19,1.82c-0.43,2-1.54,3.75-3.08,4.99l0,0
				l-2.49-0.13l-0.35-2.2c1.02-0.6,1.82-1.54,2.24-2.66h-4.67v-3.46h4.74H24.58L24.58,14.37z"/>
			<path class="st9" d="M21.47,22.81L21.47,22.81c-1.5,1.2-3.4,1.92-5.47,1.92c-3.33,0-6.22-1.86-7.7-4.6l2.83-2.32
				c0.74,1.97,2.64,3.37,4.86,3.37c0.96,0,1.85-0.26,2.62-0.71L21.47,22.81z"/>
			<path class="st10" d="M21.58,9.27l-2.83,2.32c-0.8-0.5-1.74-0.79-2.75-0.79c-2.28,0-4.21,1.47-4.91,3.51l-2.85-2.33h0
				c1.45-2.8,4.38-4.72,7.76-4.72C18.12,7.26,20.06,8.02,21.58,9.27z"/>
		</g>
		<use xlink:href="#SVGID_9_"  style="overflow:visible;fill:none;stroke:#E0E0E0;stroke-width:0.75;stroke-miterlimit:10;"/>
	</g>
</g>
</svg>
